<svg width="18" height="18" viewBox="0 0 18 18" xmlns="http://www.w3.org/2000/svg">
  <title>
    Github
  </title>
  <path d="M9 0c2.49 0 4.614.904 6.368 2.712C17.123 4.52 18 6.696 18 9.242c0 2.008-.576 3.816-1.728 5.423-1.15 1.607-2.625 2.72-4.42 3.335h-.16c-.32 0-.482-.16-.482-.482l.02-.904c.013-.576.02-1.105.02-1.587 0-.777-.214-1.353-.643-1.728 1.232-.162 2.23-.557 2.993-1.186.764-.63 1.146-1.748 1.146-3.355 0-.965-.308-1.796-.925-2.492.27-.777.243-1.594-.08-2.45h-.2c-.616 0-1.38.32-2.29.963-.777-.213-1.527-.32-2.25-.32-.723 0-1.473.107-2.25.32-.91-.642-1.674-.963-2.29-.963h-.2c-.323.857-.35 1.674-.08 2.45-.618.697-.926 1.528-.926 2.492 0 1.606.375 2.724 1.125 3.354.75.63 1.74 1.024 2.973 1.185-.295.294-.482.71-.563 1.245-.32.16-.67.24-1.044.24-.67 0-1.192-.334-1.567-1.004-.35-.588-.818-.91-1.408-.963-.562 0-.576.187-.04.562.402.214.737.67 1.005 1.366.026.107.08.234.16.38.08.15.302.343.663.584.362.24.797.36 1.306.36.375 0 .67-.025.884-.08v1.568c0 .295-.147.442-.442.442h-.16c-1.822-.616-3.302-1.72-4.44-3.315C.568 13.092 0 11.277 0 9.24c0-2.544.877-4.72 2.632-6.528C4.386.904 6.51 0 9 0z" fill="#000" fill-rule="evenodd"/>
</svg>
