<svg width="22" height="18" viewBox="0 0 22 18" xmlns="http://www.w3.org/2000/svg">
  <title>
    Twitter
  </title>
  <path d="M22 2.156c-.56.875-1.305 1.656-2.237 2.344v.563c0 3.28-1.173 6.257-3.52 8.93C13.9 16.662 10.784 18 6.9 18 4.412 18 2.113 17.313 0 15.937c.497.063.855.094 1.072.094 2.082 0 3.946-.655 5.593-1.968-.963-.03-1.833-.335-2.61-.914-.777-.578-1.305-1.32-1.585-2.226.373.062.653.094.84.094.31 0 .714-.063 1.21-.188-1.024-.22-1.887-.742-2.586-1.57-.7-.828-1.048-1.79-1.048-2.883.683.328 1.367.516 2.05.516C1.6 6.017.932 4.75.932 3.095c0-.782.202-1.53.606-2.25 2.393 2.97 5.485 4.547 9.276 4.734-.063-.22-.094-.562-.094-1.03 0-1.282.435-2.36 1.305-3.236C12.895.438 13.968 0 15.242 0s2.36.484 3.262 1.453c.932-.156 1.896-.53 2.89-1.125-.31 1.094-.98 1.938-2.004 2.53.963-.092 1.833-.327 2.61-.702z" fill="#000" fill-rule="evenodd"/>
</svg>
